<?xml version="1.0" encoding="UTF-8"?>
<svg width="100" height="100" viewBox="0 0 100 100" xmlns="http://www.w3.org/2000/svg">
    <!-- Violin Body -->
    <path d="M50 20 C30 20 20 40 20 60 C20 80 30 90 50 90 C70 90 80 80 80 60 C80 40 70 20 50 20" fill="#8B4513"/>
    
    <!-- Neck -->
    <rect x="45" y="10" width="10" height="40" fill="#8B4513"/>
    
    <!-- Strings -->
    <line x1="50" y1="20" x2="50" y2="90" stroke="#DAA520" stroke-width="1"/>
    <line x1="45" y1="20" x2="45" y2="90" stroke="#DAA520" stroke-width="1"/>
    <line x1="55" y1="20" x2="55" y2="90" stroke="#DAA520" stroke-width="1"/>
    
    <!-- Bridge -->
    <path d="M40 60 L60 60 L55 65 L45 65 Z" fill="#8B4513"/>
    
    <!-- F-Holes -->
    <path d="M35 40 C35 35 40 30 45 30 C50 30 55 35 55 40" fill="none" stroke="#000000" stroke-width="1"/>
    <path d="M45 40 C45 35 50 30 55 30 C60 30 65 35 65 40" fill="none" stroke="#000000" stroke-width="1"/>
</svg> 